<?xml version="1.0" standalone="no"?>
<!DOCTYPE svg PUBLIC "-//W3C//DTD SVG 20010904//EN"
 "http://www.w3.org/TR/2001/REC-SVG-20010904/DTD/svg10.dtd">
<svg version="1.0" xmlns="http://www.w3.org/2000/svg"
 width="500.000000pt" height="500.000000pt" viewBox="0 0 500.000000 500.000000"
 preserveAspectRatio="xMidYMid meet">

<g transform="translate(0.000000,500.000000) scale(0.100000,-0.100000)"
fill="#000000" stroke="none">
<path d="M0 2500 l0 -2500 1540 0 1540 0 0 2500 0 2500 -1540 0 -1540 0 0
-2500z m2250 195 l0 -456 -137 3 -136 3 -11 33 -11 33 -25 -27 c-82 -89 -211
-84 -307 12 -65 65 -93 145 -93 270 0 203 102 339 255 338 65 -1 94 -12 138
-52 l27 -26 0 155 c0 86 3 159 7 162 3 4 71 7 150 7 l143 0 0 -455z m-1690
-25 l0 -430 -160 0 -160 0 0 430 0 430 160 0 160 0 0 -430z m706 205 c34 -20
50 -40 76 -92 l33 -67 3 -238 4 -238 -145 0 -145 0 -4 188 c-3 197 -9 222 -49
222 -42 0 -49 -33 -49 -227 l0 -183 -150 0 -150 0 2 323 3 322 142 3 141 3 11
-34 12 -34 35 33 c63 60 149 67 230 19z m1465 25 c112 -21 196 -83 250 -182
l34 -63 3 -208 4 -208 -143 3 -143 3 -9 32 -10 32 -43 -38 c-61 -54 -122 -64
-207 -35 -118 40 -171 197 -99 293 47 64 109 88 255 98 53 3 97 10 97 15 0 16
-65 48 -100 48 -20 0 -53 -9 -75 -20 -46 -23 -43 -25 -103 72 l-42 68 41 29
c79 58 187 80 290 61z m-1120 -928 c10 -29 14 -52 9 -52 -4 0 -10 7 -14 15 -3
8 -14 15 -25 15 -10 0 -21 -7 -25 -15 -3 -8 -9 -15 -15 -15 -5 0 0 25 12 55
11 31 25 54 30 52 6 -2 18 -27 28 -55z m126 -24 c-2 -18 -4 -6 -4 27 0 33 2
48 4 33 2 -15 2 -42 0 -60z m301 70 c19 -19 14 -30 -7 -17 -28 18 -51 4 -51
-31 0 -38 23 -49 50 -25 11 10 20 14 20 9 0 -17 -23 -34 -45 -34 -29 0 -45 19
-45 51 0 47 49 76 78 47z m179 -43 c12 -30 17 -55 12 -55 -6 0 -12 7 -15 15
-8 20 -41 19 -53 -2 -5 -10 -12 -16 -14 -13 -7 7 33 110 42 110 5 0 17 -25 28
-55z m190 43 c13 -17 15 -98 2 -98 -5 0 -9 9 -9 20 0 15 -7 20 -25 20 -18 0
-25 -5 -25 -20 0 -11 -4 -20 -10 -20 -11 0 -14 93 -3 103 11 12 60 8 70 -5z
m188 2 c4 -6 -7 -10 -24 -10 -40 0 -43 -29 -3 -31 l27 -2 -27 -4 c-42 -6 -38
-40 5 -46 28 -3 26 -4 -10 -5 l-43 -2 0 55 0 55 34 0 c19 0 38 -4 41 -10z
m180 0 c4 -6 -7 -10 -24 -10 -40 0 -43 -29 -3 -31 l27 -2 -27 -4 c-42 -6 -38
-40 5 -46 28 -3 26 -4 -10 -5 l-43 -2 0 55 0 55 34 0 c19 0 38 -4 41 -10z
m172 -2 c13 -17 16 -98 3 -98 -6 0 -10 9 -10 20 0 30 -47 28 -53 -2 -2 -13 -5
3 -6 35 -1 56 -1 57 28 57 16 0 33 -6 38 -12z"/>
<path d="M1858 2633 c-23 -27 -30 -71 -17 -110 22 -67 100 -63 119 5 17 65
-11 122 -60 122 -15 0 -34 -8 -42 -17z"/>
<path d="M2656 2499 c-28 -22 -33 -48 -14 -67 31 -31 78 6 78 60 0 35 -25 37
-64 7z"/>
<path d="M1570 1975 c0 -8 5 -15 10 -15 6 0 10 7 10 15 0 8 -4 15 -10 15 -5 0
-10 -7 -10 -15z"/>
<path d="M2180 1981 c0 -12 5 -21 10 -21 6 0 10 6 10 14 0 8 -4 18 -10 21 -5
3 -10 -3 -10 -14z"/>
<path d="M2350 1995 c0 -9 9 -15 25 -15 16 0 25 6 25 15 0 9 -9 15 -25 15 -16
0 -25 -6 -25 -15z"/>
<path d="M2890 1995 c0 -9 9 -15 25 -15 16 0 25 6 25 15 0 9 -9 15 -25 15 -16
0 -25 -6 -25 -15z"/>
</g>
</svg>
