<?xml version="1.0" standalone="no"?>
<!DOCTYPE svg PUBLIC "-//W3C//DTD SVG 20010904//EN"
 "http://www.w3.org/TR/2001/REC-SVG-20010904/DTD/svg10.dtd">
<svg version="1.0" xmlns="http://www.w3.org/2000/svg"
 width="500.000000pt" height="200.000000pt" viewBox="0 0 500.000000 200.000000"
 preserveAspectRatio="xMidYMid meet">

<g transform="translate(0.000000,200.000000) scale(0.100000,-0.100000)"
fill="#000000" stroke="none">
<path d="M0 1000 l0 -1000 1540 0 1540 0 0 1000 0 1000 -1540 0 -1540 0 0
-1000z m2250 -205 l0 -456 -137 3 -136 3 -11 33 -11 33 -25 -27 c-82 -89 -211
-84 -307 12 -65 65 -93 145 -93 270 0 203 102 339 255 338 65 -1 94 -12 138
-52 l27 -26 0 155 c0 86 3 159 7 162 3 4 71 7 150 7 l143 0 0 -455z m-1690
-25 l0 -430 -160 0 -160 0 0 430 0 430 160 0 160 0 0 -430z m706 205 c34 -20
50 -40 76 -92 l33 -67 3 -238 4 -238 -145 0 -145 0 -4 188 c-3 197 -9 222 -49
222 -42 0 -49 -33 -49 -227 l0 -183 -150 0 -150 0 2 323 3 322 142 3 141 3 11
-34 12 -34 35 33 c63 60 149 67 230 19z m1465 25 c112 -21 196 -83 250 -182
l34 -63 3 -208 4 -208 -143 3 -143 3 -9 32 -10 32 -43 -38 c-61 -54 -122 -64
-207 -35 -118 40 -171 197 -99 293 47 64 109 88 255 98 53 3 97 10 97 15 0 16
-65 48 -100 48 -20 0 -53 -9 -75 -20 -46 -23 -43 -25 -103 72 l-42 68 41 29
c79 58 187 80 290 61z"/>
<path d="M1858 733 c-23 -27 -30 -71 -17 -110 22 -67 100 -63 119 5 17 65 -11
122 -60 122 -15 0 -34 -8 -42 -17z"/>
<path d="M2656 599 c-28 -22 -33 -48 -14 -67 31 -31 78 6 78 60 0 35 -25 37
-64 7z"/>
</g>
</svg>
