<svg xmlns="http://www.w3.org/2000/svg" width="500" height="200" viewBox="0 0 500 200" version="1.1"><path d="M 196 92.104 L 196 108.207 192.389 105.037 C 187.777 100.988, 184.749 99.857, 178.336 99.791 C 168.562 99.691, 161.268 105.006, 156.090 116 C 153.753 120.963, 153.500 122.671, 153.500 133.500 C 153.500 144.558, 153.720 145.971, 156.307 151.500 C 161.455 162.507, 168.356 167.444, 178.500 167.378 C 185.051 167.335, 189.080 165.710, 192.976 161.540 L 195.453 158.889 196.564 162.195 L 197.676 165.500 211.338 165.778 L 225 166.056 225 121.028 L 225 76 210.500 76 L 196 76 196 92.104 M 261.500 99.698 C 255.188 100.535, 248.212 103.064, 244.203 105.968 L 240.033 108.989 244.660 116.244 C 250.748 125.791, 250.247 125.429, 254.116 123.070 C 258.671 120.293, 265.833 120.295, 269.365 123.073 C 274.336 126.983, 272.952 128, 262.659 128 C 242.370 128, 233.252 134.915, 234.187 149.594 C 234.647 156.816, 237.815 161.852, 243.808 164.889 C 252.464 169.276, 261.362 168.378, 267.915 162.458 L 271.717 159.023 272.645 162.261 L 273.572 165.500 287.875 165.778 L 302.179 166.056 301.839 145.778 C 301.513 126.289, 301.397 125.280, 298.852 119.852 C 293.856 109.195, 284.094 102.032, 271.862 100.047 C 268.363 99.480, 265.275 99.079, 265 99.157 C 264.725 99.236, 263.150 99.479, 261.500 99.698 M 187.375 124.985 C 185.257 125.840, 183 130.593, 183 134.199 C 183 139.962, 188.546 144.384, 192.872 142.069 C 198.025 139.311, 197.714 127.558, 192.424 125.147 C 191.039 124.516, 189.815 124.029, 189.703 124.063 C 189.591 124.098, 188.544 124.513, 187.375 124.985 M 266.228 139.230 C 261.860 141.335, 262.025 148, 266.446 148 C 269.154 148, 271.334 145.346, 272.400 140.750 C 272.955 138.359, 272.742 138.009, 270.769 138.068 C 269.521 138.105, 267.478 138.628, 266.228 139.230" stroke="none" fill="#fffb0a" fill-rule="evenodd"/><path d="M 314 121 L 314 166 327.500 166 C 335.207 166, 341 165.599, 341 165.065 C 341 164.551, 341.467 162.901, 342.039 161.398 L 343.078 158.666 344.605 160.846 C 346.466 163.503, 352.210 166.496, 357.180 167.397 C 366.234 169.039, 377.593 162.022, 381.831 152.170 C 390.115 132.914, 384.438 109.461, 369.650 101.841 C 362.244 98.025, 350.877 99.792, 345.499 105.595 L 343 108.292 343 92.146 L 343 76 328.500 76 L 314 76 314 121 M 24 123.500 L 24 166 40 166 L 56 166 56 123.500 L 56 81 40 81 L 24 81 24 123.500 M 427.638 100.186 C 415.345 101.801, 405.212 109.050, 400.149 119.852 C 397.976 124.489, 397.501 126.936, 397.501 133.521 C 397.500 140.561, 397.900 142.355, 400.771 148.185 C 405.943 158.692, 414.710 164.816, 427.905 167.140 C 434.843 168.362, 444.820 167.064, 451.500 164.070 C 457.419 161.417, 464.740 154.441, 467.711 148.623 C 470.767 142.639, 471.907 131.040, 470.096 124.343 C 465.635 107.836, 447.585 97.567, 427.638 100.186 M 108.500 101.162 C 107.400 101.768, 105.054 103.626, 103.286 105.293 L 100.073 108.322 99.036 105.596 C 98.466 104.096, 98 102.449, 98 101.935 C 98 101.400, 92.017 101, 84 101 L 70 101 70 133.500 L 70 166 84.500 166 L 99 166 99 147 C 99 129.333, 99.140 127.860, 101 126 C 103.165 123.835, 103.909 123.636, 105.600 124.765 C 108.458 126.673, 109 130.369, 109 147.934 L 109 166 123.594 166 L 138.187 166 137.786 142.750 C 137.424 121.741, 137.174 118.965, 135.195 113.949 C 132.832 107.959, 128.187 102.759, 123.685 101.061 C 120.043 99.688, 111.069 99.748, 108.500 101.162 M 344.455 126.455 C 339.566 131.344, 342.416 143, 348.500 143 C 354.584 143, 357.434 131.344, 352.545 126.455 C 351.195 125.105, 349.375 124, 348.500 124 C 347.625 124, 345.805 125.105, 344.455 126.455 M 431.249 125.032 C 427.881 126.385, 425.463 132.136, 426.598 136.095 C 427.818 140.347, 432.016 143.464, 435.385 142.618 C 442.318 140.878, 444.358 132.204, 439.077 126.923 C 435.991 123.838, 434.885 123.570, 431.249 125.032" stroke="none" fill="#ffffff" fill-rule="evenodd"/><path d="M 308 100 L 308 200 404 200 L 500 200 500 100 L 500 0 404 0 L 308 0 308 100 M 195.441 76.292 C 195.169 77.003, 195.083 84.540, 195.251 93.042 L 195.556 108.500 195.778 92.277 L 196 76.053 210.750 75.748 L 225.500 75.442 210.719 75.221 C 199.398 75.052, 195.821 75.302, 195.441 76.292 M 314 121 L 314 166 327.500 166 C 335.207 166, 341 165.599, 341 165.065 C 341 164.551, 341.467 162.901, 342.039 161.398 L 343.078 158.666 344.605 160.846 C 346.466 163.503, 352.210 166.496, 357.180 167.397 C 366.234 169.039, 377.593 162.022, 381.831 152.170 C 390.115 132.914, 384.438 109.461, 369.650 101.841 C 362.244 98.025, 350.877 99.792, 345.499 105.595 L 343 108.292 343 92.146 L 343 76 328.500 76 L 314 76 314 121 M 31.750 80.744 C 36.288 80.929, 43.712 80.929, 48.250 80.744 C 52.788 80.559, 49.075 80.407, 40 80.407 C 30.925 80.407, 27.212 80.559, 31.750 80.744 M 114.250 99.689 C 115.213 99.941, 116.787 99.941, 117.750 99.689 C 118.713 99.438, 117.925 99.232, 116 99.232 C 114.075 99.232, 113.287 99.438, 114.250 99.689 M 427.638 100.186 C 415.345 101.801, 405.212 109.050, 400.149 119.852 C 397.976 124.489, 397.501 126.936, 397.501 133.521 C 397.500 140.561, 397.900 142.355, 400.771 148.185 C 405.943 158.692, 414.710 164.816, 427.905 167.140 C 434.843 168.362, 444.820 167.064, 451.500 164.070 C 457.419 161.417, 464.740 154.441, 467.711 148.623 C 470.767 142.639, 471.907 131.040, 470.096 124.343 C 465.635 107.836, 447.585 97.567, 427.638 100.186 M 69.447 134 C 69.447 151.875, 69.582 159.188, 69.748 150.250 C 69.914 141.313, 69.914 126.688, 69.748 117.750 C 69.582 108.813, 69.447 116.125, 69.447 134 M 344.455 126.455 C 339.566 131.344, 342.416 143, 348.500 143 C 354.584 143, 357.434 131.344, 352.545 126.455 C 351.195 125.105, 349.375 124, 348.500 124 C 347.625 124, 345.805 125.105, 344.455 126.455 M 431.249 125.032 C 427.881 126.385, 425.463 132.136, 426.598 136.095 C 427.818 140.347, 432.016 143.464, 435.385 142.618 C 442.318 140.878, 444.358 132.204, 439.077 126.923 C 435.991 123.838, 434.885 123.570, 431.249 125.032 M 261.728 127.722 C 263.503 127.943, 266.653 127.946, 268.728 127.730 C 270.802 127.513, 269.350 127.333, 265.500 127.328 C 261.650 127.324, 259.952 127.501, 261.728 127.722" stroke="none" fill="#6edcfb" fill-rule="evenodd"/><path d="M 0 100 L 0 200 154 200 L 308 200 308 100 L 308 0 154 0 L 0 0 0 100 M 195.667 75.667 C 195.300 76.033, 195 83.318, 195 91.854 L 195 107.374 192.250 104.809 C 187.925 100.775, 184.950 99.652, 178.500 99.616 C 171.188 99.576, 165.746 102.142, 160.740 107.991 C 153.221 116.775, 150.750 134.505, 155.087 148.547 C 160.775 166.963, 181.459 174.075, 192.976 161.577 L 195.453 158.889 196.564 162.195 L 197.676 165.500 211.338 165.778 L 225 166.056 225 120.528 L 225 75 210.667 75 C 202.783 75, 196.033 75.300, 195.667 75.667 M 24 123 L 24 166 40 166 L 56 166 56 123 L 56 80 40 80 L 24 80 24 123 M 110.306 100.053 C 108.550 100.589, 105.524 102.526, 103.582 104.358 L 100.052 107.687 98.940 104.317 L 97.827 100.946 83.664 101.223 L 69.500 101.500 69.236 133.750 L 68.972 166 83.986 166 L 99 166 99 148.047 C 99 128.669, 99.723 125, 103.538 125 C 107.982 125, 108.479 127.082, 108.828 147.151 L 109.156 166 123.657 166 L 138.159 166 137.829 142.250 C 137.507 119.009, 137.444 118.382, 134.876 113 C 131.905 106.774, 129.270 103.708, 124.988 101.494 C 121.127 99.497, 114.317 98.829, 110.306 100.053 M 260 99.691 C 254.587 100.597, 247.951 103.253, 244.064 106.068 L 239.984 109.024 244.152 115.762 C 250.199 125.536, 249.915 125.338, 254.498 123.001 C 256.657 121.900, 260.015 121.002, 261.961 121.004 C 265.455 121.007, 272 124.157, 272 125.835 C 272 126.310, 267.613 126.992, 262.250 127.349 C 247.728 128.318, 241.501 130.696, 236.776 137.077 C 229.630 146.728, 234.946 162.409, 246.724 166.421 C 255.198 169.309, 261.269 168.276, 267.367 162.908 L 271.730 159.068 272.651 162.284 L 273.572 165.500 287.874 165.778 L 302.176 166.056 301.838 145.278 L 301.500 124.500 298.070 118.174 C 290.659 104.505, 275.425 97.109, 260 99.691 M 185.789 126.750 C 183.483 129.404, 182.782 133.810, 184.054 137.663 C 186.264 144.359, 194.071 144.024, 195.969 137.152 C 197.736 130.750, 194.912 125, 190 125 C 188.520 125, 186.626 125.787, 185.789 126.750 M 265.635 140.073 C 262.810 142.294, 262.262 144.862, 264.200 146.800 C 267.275 149.875, 272 146.228, 272 140.777 C 272 137.341, 269.464 137.061, 265.635 140.073" stroke="none" fill="#6c04fb" fill-rule="evenodd"/></svg>